<svg xmlns="http://www.w3.org/2000/svg" xmlns:xlink="http://www.w3.org/1999/xlink" version="1.1" x="0px" y="0px" viewBox="0 0 66 82.5" style="enable-background:new 0 0 66 66;fill: #e75922;" xml:space="preserve"><g><g><path d="M41.5,36.3c-0.5,0.1-0.9,0.6-0.8,1.2c1.6,7.9,0.2,0.9,3.6,17.6c0.1,0.3,0.2,0.5,0.4,0.6c0.2,0.1,0.5,0.2,0.8,0.1L63,52.2    c0.5-0.1,0.9-0.6,0.8-1.2c-4.2-20.7-3.4-16.8-3.6-17.6c-0.1-0.3-0.2-0.5-0.4-0.6c-0.2-0.1-0.5-0.2-0.8-0.1    C55.4,33.4,44.9,35.6,41.5,36.3z M58.9,36.9l-4.5,0.9L54,35.7l4.5-0.9L58.9,36.9z M49.3,36.7c0.6-0.1,2.2-0.4,2.8-0.6l0.7,3.6    L52,39.1c-0.2-0.2-0.5-0.3-0.8-0.2c-0.3,0.1-0.5,0.2-0.7,0.5L50,40.3L49.3,36.7z M47.3,37.1l0.4,2.1l-4.5,0.9L42.9,38L47.3,37.1z     M46,53.7l-2.3-11.6l4.5-0.9l0.4,2.2c0.1,0.4,0.4,0.7,0.8,0.8c0.4,0.1,0.8-0.1,1-0.5l1.2-2.3l2,1.6c0.3,0.3,0.8,0.3,1.1,0.1    c0.4-0.2,0.5-0.6,0.5-1.1l-0.4-2.2l4.5-0.9l2.3,11.6L46,53.7z"/></g><g><path d="M39.6,33.7c0.1,0.3,0.2,0.5,0.4,0.6c0.2,0.1,0.4,0.2,0.6,0.2c0.1,0,0.1,0,0.2,0l17.6-3.6c0.5-0.1,0.9-0.6,0.8-1.2    c-4.1-20.5-2.8-14-3.6-17.6c-0.1-0.3-0.2-0.5-0.4-0.6c-0.2-0.1-0.5-0.2-0.8-0.1c-1.8,0.4-16.2,3.3-17.6,3.6    c-0.5,0.1-0.9,0.6-0.8,1.2C36.9,20.5,37.6,23.9,39.6,33.7z M41.3,32.3L39,20.7l4.5-0.9l0.4,2.2c0.1,0.4,0.4,0.7,0.8,0.8    c0.4,0.1,0.8-0.1,1-0.5L47,20l2,1.6c0.3,0.3,0.8,0.3,1.1,0.1c0.4-0.2,0.5-0.6,0.5-1.1l-0.4-2.2l4.5-0.9L57,29.1L41.3,32.3z     M47.4,14.8l0.7,3.6l-0.8-0.6c-0.2-0.2-0.5-0.3-0.8-0.2c-0.3,0.1-0.5,0.2-0.7,0.5l-0.5,0.9l-0.7-3.6l0.4-0.1L47.4,14.8z     M54.2,15.6l-4.5,0.9l-0.4-2.1l4.5-0.9L54.2,15.6z M42.6,15.8l0.4,2.1l-4.5,0.9l-0.4-2.1L42.6,15.8z"/></g><g><path d="M17.6,15.4H6.7C3,15.4,0,18.8,0,22.8V41c0,0.6,0.4,1,1,1h3.7v11.4c0,1.7,1.4,3.1,3.1,3.1h8.5c1.7,0,3.1-1.4,3.1-3.1V42    h3.7c0.6,0,1-0.4,1-1V22.8C24.3,18.8,21.3,15.4,17.6,15.4z M22.3,40h-2.7v-9.1c0-0.6-0.4-1-1-1c-0.6,0-1,0.4-1,1v22.5    c0,0.6-0.5,1.1-1.1,1.1h-3.3V41.6c0-0.6-0.4-1-1-1c-0.6,0-1,0.4-1,1v12.9H7.9c-0.6,0-1.1-0.5-1.1-1.1V30.9c0-0.6-0.4-1-1-1    c-0.6,0-1,0.4-1,1V40H2V22.8c0-3,2.1-5.4,4.7-5.4h10.9c2.6,0,4.7,2.4,4.7,5.4V40z"/></g><g><path d="M12.1,14.5c4.1,0,7.4-3.3,7.4-7.3c0-4-3.3-7.3-7.4-7.3C8,0,4.7,3.3,4.7,7.3C4.7,11.3,8,14.5,12.1,14.5z M12.1,2    c3,0,5.4,2.4,5.4,5.3c0,2.9-2.4,5.3-5.4,5.3c-3,0-5.4-2.4-5.4-5.3C6.7,4.4,9.1,2,12.1,2z"/></g><g><path d="M64.8,53l-21.3,4.3c-0.9-2.5-3.3-4.3-6.2-4.3l-4.9-28.2c-0.4-2.1-2.2-3.6-4.3-3.6h-1.4c-0.6,0-1,0.4-1,1c0,0.6,0.4,1,1,1    h1.4c1.1,0,2.1,0.8,2.3,2l4.9,28.2c-2.5,0.8-4.3,3.2-4.4,6c-0.1,3.6,2.7,6.6,6.3,6.7c3.8,0.1,6.6-2.9,6.7-6.3c0-0.2,0-0.3,0-0.5    l21.3-4.3c0.5-0.1,0.9-0.6,0.8-1.2C65.9,53.2,65.3,52.8,64.8,53z M37.3,64c-2.5-0.1-4.4-2.2-4.4-4.7c0.1-2.5,2.1-4.4,4.5-4.4    c2.7,0,4.6,2.3,4.5,4.7C41.8,62,39.9,64,37.3,64z"/></g><g><path d="M22.6,58.5H1.7c-0.6,0-1,0.4-1,1c0,0.6,0.4,1,1,1h20.9c0.6,0,1-0.4,1-1C23.6,58.9,23.1,58.5,22.6,58.5z"/></g><g><path d="M22.6,63H1.7c-0.6,0-1,0.4-1,1c0,0.6,0.4,1,1,1h20.9c0.6,0,1-0.4,1-1C23.6,63.4,23.1,63,22.6,63z"/></g></g></svg>