<svg xmlns="http://www.w3.org/2000/svg" xmlns:xlink="http://www.w3.org/1999/xlink" version="1.1" x="0px" y="0px" viewBox="0 0 66 82.5" style="enable-background:new 0 0 66 66;fill: #e75922;" xml:space="preserve"><g><g><path d="M66,35.6c0-1-0.3-1.9-0.8-2.7l-6.7-11.1c-1-1.6-2.7-2.5-4.5-2.5h-9.9V8.4c0-0.6-0.4-1-1-1h-2.8c-0.6,0-1,0.4-1,1    s0.4,1,1,1h1.8v26.1H2V9.4h2c0.6,0,1-0.4,1-1s-0.4-1-1-1H1c-0.6,0-1,0.4-1,1C0,40.5,0,53,0,56.6c0,0.6,0.4,1,1,1h10.5    c-0.4,4.5,3.1,8.4,7.6,8.4c4.5,0,8.1-3.9,7.6-8.4h17C43.4,62.1,47,66,51.5,66c4.5,0,8.1-3.9,7.6-8.4H65c0.6,0,1-0.4,1-1    C66,37,66,55,66,35.6z M54,21.3c1.1,0,2.2,0.6,2.8,1.6l6.7,11.1c0.3,0.5,0.5,1.1,0.5,1.7v9.2H44.1V21.3H54z M42.1,37.5v7.3H2v-7.3    H42.1z M19.2,64c-3.1,0-5.7-2.5-5.7-5.7c0-3.1,2.5-5.7,5.7-5.7c3.1,0,5.7,2.5,5.7,5.7C24.8,61.5,22.3,64,19.2,64z M51.5,64    c-3.1,0-5.7-2.5-5.7-5.7c0-3.1,2.5-5.7,5.7-5.7c3.1,0,5.7,2.5,5.7,5.7C57.2,61.5,54.6,64,51.5,64z M64,55.6h-5.3    c-1.1-2.9-3.9-4.9-7.2-4.9c-3.3,0-6.1,2-7.2,4.9h-18c-1.1-2.9-3.9-4.9-7.2-4.9c-3.3,0-6.1,2-7.2,4.9H2v-8.7h62V55.6z"/></g><g><path d="M48.8,35.7h10c0,0,0,0,0,0c0.6,0,1-0.4,1-1c0-0.3-0.1-0.5-0.3-0.7l-4.9-7.9c-0.5-0.8-1.4-1.3-2.3-1.3h-3.6    c-0.6,0-1,0.4-1,1v8.9C47.8,35.3,48.2,35.7,48.8,35.7z M49.8,26.9h2.6c0.2,0,0.5,0.1,0.6,0.3l4,6.5h-7.2V26.9z"/></g><g><path d="M7,32.4h30.4c0.6,0,1-0.4,1-1V8.8c0,0,0,0,0,0c0,0,0,0,0,0V1c0-0.6-0.4-1-1-1C34.1,0,10.3,0,7,0C6.5,0,6,0.4,6,1v30.4    C6,31.9,6.5,32.4,7,32.4z M8,30.4V9.8h8.4v5.7c0,0.4,0.3,0.8,0.6,0.9c0.4,0.1,0.8,0,1.1-0.3l4-4.4l4,4.4c0.3,0.3,0.7,0.4,1.1,0.3    c0.4-0.1,0.6-0.5,0.6-0.9V9.8h8.4v20.6H8z M36.4,7.8h-8.4V2h8.4V7.8z M25.9,2v10.9l-3-3.3c-0.2-0.2-0.5-0.3-0.7-0.3    c-0.3,0-0.5,0.1-0.7,0.3l-3,3.3V2H25.9z M16.5,2v5.8H8V2H16.5z"/></g><g><path d="M33.7,22.8L33.7,22.8l-4.5-4.5c-0.4-0.4-1-0.4-1.4,0c-0.4,0.4-0.4,1,0,1.4l2.8,2.8H11.1c-0.6,0-1,0.4-1,1s0.4,1,1,1h19.5    l-2.8,2.8c-0.4,0.4-0.4,1,0,1.4c0.4,0.4,1,0.4,1.4,0l4.5-4.5l0,0c0.2-0.2,0.3-0.4,0.3-0.7C34,23.3,33.9,23,33.7,22.8z"/></g></g></svg>