<svg xmlns="http://www.w3.org/2000/svg" xmlns:xlink="http://www.w3.org/1999/xlink" version="1.1" x="0px" y="0px" viewBox="0 0 66 82.5" style="enable-background:new 0 0 66 66;fill: #e75922;" xml:space="preserve"><g><g><path d="M65,48.8h-8.7V18.9h8.3c0.6,0,1-0.4,1-1V1c0-0.6-0.4-1-1-1H38.7c-0.6,0-1,0.4-1,1v16.9c0,0.6,0.4,1,1,1h8.3v29.9H38    c0,0,0,0,0,0h-0.2c0-5.8,0-18.4,0-24c0-0.6-0.4-1-1-1c-29,0,2.1,0-31.6,0c-0.6,0-1,0.4-1,1c0,6,0,17.8,0,24H1c-0.6,0-1,0.4-1,1    v9.1c0,0.6,0.4,1,1,1h10.1V65c0,0.6,0.4,1,1,1h9.8c0.6,0,1-0.4,1-1v-5.1h20.4V65c0,0.6,0.4,1,1,1h9.8c0.6,0,1-0.4,1-1v-5.1H65    c0.6,0,1-0.4,1-1v-9.1C66,49.3,65.6,48.8,65,48.8z M39.7,2h23.9v14.9c-7.8,0-14.6,0-23.9,0V2z M54.3,18.9v29.9h-5.4V18.9H54.3z     M6.2,48.8V32.1h9.5v3.9c0,0.4,0.2,0.8,0.6,0.9c0.4,0.2,0.8,0.1,1.1-0.2L21,33l3.5,3.6c0.3,0.3,0.7,0.4,1.1,0.2    c0.4-0.2,0.6-0.5,0.6-0.9v-3.9h9.5v16.8C24.8,48.8,17.2,48.8,6.2,48.8z M35.8,30.1h-9.5v-4.3h9.5V30.1z M24.3,25.8v7.7l-2.5-2.6    c-0.2-0.2-0.4-0.3-0.7-0.3s-0.5,0.1-0.7,0.3l-2.5,2.6v-7.7H24.3z M15.7,25.8v4.3H6.2v-4.3H15.7z M20.8,64h-7.8v-4.1h7.8V64z     M52.9,64h-7.8v-4.1h7.8V64z M64,57.9c-22.2,0-39.2,0-62,0v-7.1h62V57.9z"/></g><g><path d="M61.5,11.1c0.6,0,1-0.4,1-1v-6c0-0.6-0.4-1-1-1H41.8c-0.6,0-1,0.4-1,1v6c0,0.6,0.4,1,1,1H61.5z M42.8,5.1h17.7v4H42.8V5.1    z"/></g><g><path d="M44.7,13h-2.4c-0.6,0-1,0.4-1,1c0,0.6,0.4,1,1,1h2.4c0.6,0,1-0.4,1-1C45.7,13.4,45.2,13,44.7,13z"/></g><g><path d="M51.1,14c0-0.6-0.4-1-1-1h-2.4c-0.6,0-1,0.4-1,1c0,0.6,0.4,1,1,1h2.4C50.7,15,51.1,14.5,51.1,14z"/></g><g><path d="M55.5,13h-2.4c-0.6,0-1,0.4-1,1c0,0.6,0.4,1,1,1h2.4c0.6,0,1-0.4,1-1C56.5,13.4,56.1,13,55.5,13z"/></g><g><path d="M60.9,13h-2.4c-0.6,0-1,0.4-1,1c0,0.6,0.4,1,1,1h2.4c0.6,0,1-0.4,1-1C61.9,13.4,61.5,13,60.9,13z"/></g></g></svg>