<svg xmlns="http://www.w3.org/2000/svg" xmlns:xlink="http://www.w3.org/1999/xlink" version="1.1" x="0px" y="0px" viewBox="0 0 66 82.5" style="enable-background:new 0 0 66 66; fill: #e75922;" xml:space="preserve"><g><g><path d="M65.8,15.2L57.3,1.8c-0.7-1.1-2-1.8-3.4-1.8c-10,0-19.3,0-41.7,0c-1.4,0-2.7,0.7-3.4,1.8L0.2,15.2C0.1,15.3,0,15.6,0,15.7    v35.6c0,2.3,1.9,4.2,4.2,4.2H11c4,6.4,9.5,10.1,9.9,10.3c0.2,0.1,0.4,0.2,0.5,0.2c0.2,0,0.4-0.1,0.5-0.2c0.4-0.2,5.9-3.9,9.9-10.3    h29.9c2.3,0,4.2-1.9,4.2-4.2c0,0,0-35.6,0-35.6C66,15.5,65.9,15.3,65.8,15.2z M23.1,16.7h19.8v9.2H23.1V16.7z M55.6,2.9l7.6,11.8    H44.7L40.6,2h13.2C54.6,2,55.3,2.3,55.6,2.9z M38.5,2l4,12.7H23.4l4-12.7H38.5z M10.4,2.9c0.3-0.5,1-0.9,1.7-0.9h13.2l-4,12.7H2.8    L10.4,2.9z M21.4,63.8C19,62,9,54.1,9,42.4v-3.1c4.3-1.1,8.6-2.4,12.4-5.9c3.8,3.2,7.8,5.2,12.4,6v3C33.8,54.1,23.9,62,21.4,63.8z     M64,51.4c0,1.2-1,2.2-2.2,2.2H33c1.6-3.2,2.8-6.9,2.8-11.2v-3.8c0-0.5-0.4-0.9-0.8-1c-4.8-0.7-8.9-2.7-12.8-6.2    c-0.2-0.2-0.5-0.3-0.7-0.3c-0.3,0-0.6,0.1-0.8,0.3c-3.8,3.8-8.2,5-12.9,6.2c-0.4,0.1-0.7,0.5-0.7,1v3.8c0,4.3,1.2,8,2.8,11.2H4.2    c-1.2,0-2.2-1-2.2-2.2V16.7h19.1v10.2c0,0.6,0.4,1,1,1h21.8c0.6,0,1-0.4,1-1V16.7H64V51.4z"/></g><g><path d="M31.1,40.6c-2.9-1-5.9-1.7-8.9-4.1c-0.4-0.3-1-0.3-1.3,0c-2.6,2-5.6,2.7-9.1,4c-0.4,0.1-0.7,0.5-0.7,0.9    c0,9.7,5.9,17.1,9.8,19.8c0.2,0.1,0.4,0.2,0.6,0.2c0.2,0,0.4-0.1,0.6-0.2c4.9-3.3,9.8-11.1,9.8-19.6    C31.8,41.2,31.5,40.8,31.1,40.6z M21.4,59.1c-2.7-2.1-8.1-8.1-8.3-17c3-1,5.8-1.8,8.4-3.6c2.9,2.1,5.6,2.9,8.3,3.8    C29.5,49.4,25.4,56.1,21.4,59.1z"/></g><g><path d="M25.5,44.8l-5.4,4.9L18.5,47c-0.3-0.5-0.9-0.6-1.4-0.4c-0.5,0.3-0.6,0.9-0.4,1.4l2.2,3.8c0.2,0.3,0.4,0.4,0.7,0.5    c0.3,0,0.6,0,0.8-0.2l6.3-5.7c0.4-0.4,0.4-1,0.1-1.4C26.6,44.4,25.9,44.4,25.5,44.8z"/></g><g><path d="M44.9,33.4c-0.3,0-0.5,0.1-0.7,0.3c0,0,0,0,0,0l-3.7,3.7c-0.4,0.4-0.4,1,0,1.4c0.4,0.4,1,0.4,1.4,0l2-2v7.9    c0,0.6,0.4,1,1,1c0.6,0,1-0.4,1-1v-7.9l2,2c0.4,0.4,1,0.4,1.4,0c0.4-0.4,0.4-1,0-1.4l-3.7-3.7c0,0,0,0,0,0    C45.4,33.5,45.2,33.4,44.9,33.4z"/></g><g><path d="M53.2,38.8l2-2v7.9c0,0.6,0.4,1,1,1c0.6,0,1-0.4,1-1v-7.9l2,2c0.4,0.4,1,0.4,1.4,0c0.4-0.4,0.4-1,0-1.4l-3.7-3.7    c0,0,0,0,0,0c-0.2-0.2-0.4-0.3-0.7-0.3c-0.3,0-0.5,0.1-0.7,0.3c0,0,0,0,0,0l-3.7,3.7c-0.4,0.4-0.4,1,0,1.4    C52.2,39.2,52.8,39.2,53.2,38.8z"/></g><g><path d="M59.9,48.2H41.2c-0.6,0-1,0.4-1,1s0.4,1,1,1h18.7c0.6,0,1-0.4,1-1S60.5,48.2,59.9,48.2z"/></g></g></svg>