<svg xmlns="http://www.w3.org/2000/svg" xmlns:xlink="http://www.w3.org/1999/xlink" version="1.1" x="0px" y="0px" viewBox="0 0 66 82.5" style="enable-background:new 0 0 66 66; fill: #e75922;" xml:space="preserve"><g><g><path d="M48.1,61.9c-0.6,0-1,0.4-1,1V64H2V12.5h10.2c-0.3,1.1-0.5,2.3-0.5,3.8c0,0.6,0.4,1,1,1h23.8c0.6,0,1-0.4,1-1    c0-1.4-0.2-2.6-0.5-3.8h10.2v6.9c0,0.6,0.4,1,1,1c0.6,0,1-0.4,1-1v-7.9c0-0.6-0.4-1-1-1h-12c-1-1.8-2.5-3.2-4.6-4.2    c-0.2-3.7-3.4-6.3-7-6.3c-3.6,0-6.8,2.7-7,6.3c-1.7,0.8-3.4,2-4.6,4.2H1c-0.6,0-1,0.4-1,1V65c0,0.6,0.4,1,1,1h47.1    c0.6,0,1-0.4,1-1v-2.1C49.1,62.4,48.6,61.9,48.1,61.9z M18.9,7.9c0.4-0.2,0.7-0.6,0.6-1c-0.2-2.8,2.2-5,5-5c2.8,0,5.1,2.1,5,5    c0,0.4,0.2,0.8,0.6,1c3.2,1.3,5,3.7,5.2,7.4H13.7C14,11.7,15.7,9.2,18.9,7.9z"/></g><g><path d="M24.5,11.7c2.1,0,3.9-1.7,3.9-3.9c0-2.1-1.7-3.9-3.9-3.9c-2.1,0-3.9,1.7-3.9,3.9C20.7,9.9,22.4,11.7,24.5,11.7z M24.5,5.9    c1,0,1.9,0.8,1.9,1.9s-0.8,1.9-1.9,1.9c-1,0-1.9-0.8-1.9-1.9S23.5,5.9,24.5,5.9z"/></g><g><path d="M14.7,23.3c0-0.6-0.4-1-1-1H6.9c-0.6,0-1,0.4-1,1v7.3c0,0.6,0.4,1,1,1h6.8c0.6,0,1-0.4,1-1V23.3z M12.7,29.5H7.9v-5.3h4.8    V29.5z"/></g><g><path d="M14.7,36.7c0-0.6-0.4-1-1-1H6.9c-0.6,0-1,0.4-1,1V44c0,0.6,0.4,1,1,1h6.8c0.6,0,1-0.4,1-1V36.7z M12.7,43H7.9v-5.3h4.8V43    z"/></g><g><path d="M13.7,49.1H6.9c-0.6,0-1,0.4-1,1v7.3c0,0.6,0.4,1,1,1h6.8c0.6,0,1-0.4,1-1v-7.3C14.7,49.5,14.2,49.1,13.7,49.1z     M12.7,56.4H7.9v-5.3h4.8V56.4z"/></g><g><path d="M65.4,32l-18.1-9.9c-0.3-0.2-0.7-0.2-0.9,0c-3.4,1.8-14.7,7.8-18.1,9.7c-0.3,0.2-0.5,0.5-0.5,0.9c0,0,0,0,0,0c0,0,0,0,0,0    V43c-5.3,0.1-9.5,4.4-9.5,9.7c0,5.3,4.3,9.7,9.7,9.7c4.5,0,8.3-3.1,9.3-7.2l9.1,5.8c0,0,0,0,0,0c0.3,0.2,0.6,0.2,1,0c0,0,0,0,0,0    l0,0c0,0,0,0,0,0c0,0,0,0,0,0l18.2-9.7c0.3-0.2,0.5-0.5,0.5-0.9V32.9C66,32.5,65.7,32.1,65.4,32z M46.8,24.1l16.2,8.8l-4.2,2.3    l-16.2-8.9L46.8,24.1z M54.8,37.9L38,28.8l2.4-1.3l17.3,9.5v4.9l-2.4,1.3v-4.4C55.3,38.4,55.1,38,54.8,37.9z M35.9,29.9l16.3,8.9    l-5.4,3l-16.1-9.1L35.9,29.9z M27.8,60.3c-4.2,0-7.7-3.4-7.7-7.7s3.4-7.7,7.7-7.7s7.7,3.4,7.7,7.7S32,60.3,27.8,60.3z M37.4,52.9    c0.1-4.9-3.3-8.9-7.8-9.7v-8.9l16.1,9.1v14.7L37.4,52.9z M47.8,58.3V43.5l5.5-3v4.4c0,0.4,0.2,0.7,0.5,0.9    c0.2,0.1,0.3,0.1,0.5,0.1c0.2,0,0.3,0,0.5-0.1l4.4-2.4c0.3-0.2,0.5-0.5,0.5-0.9v-5.5l4.3-2.3v15.1L47.8,58.3z"/></g><g><path d="M32.8,26.9c0-0.6-0.4-1-1-1H17.5c-0.6,0-1,0.4-1,1c0,0.6,0.4,1,1,1h14.3C32.3,27.9,32.8,27.5,32.8,26.9z"/></g><g><path d="M17.4,39.4c-0.6,0-1,0.4-1,1c0,0.6,0.4,1,1,1h8.3c0.6,0,1-0.4,1-1c0-0.6-0.4-1-1-1H17.4z"/></g><g><path d="M33.3,49.1c-0.4-0.4-1-0.4-1.4-0.1l-6.2,5.7l-2-2.8c-0.3-0.5-0.9-0.6-1.4-0.2c-0.5,0.3-0.6,0.9-0.2,1.4l2.6,3.8    c0.2,0.2,0.4,0.4,0.7,0.4c0,0,0.1,0,0.1,0c0.2,0,0.5-0.1,0.7-0.3l7-6.5C33.7,50.2,33.7,49.5,33.3,49.1z"/></g></g></svg>