<?xml version="1.0" encoding="UTF-8"?>
<!DOCTYPE svg PUBLIC "-//W3C//DTD SVG 1.1//EN" "http://www.w3.org/Graphics/SVG/1.1/DTD/svg11.dtd">
<!-- Creator: CorelDRAW 2020 (64-Bit) -->
<svg xmlns="http://www.w3.org/2000/svg" xml:space="preserve" width="61mm" height="28mm" version="1.1" style="shape-rendering:geometricPrecision; text-rendering:geometricPrecision; image-rendering:optimizeQuality; fill-rule:evenodd; clip-rule:evenodd"
viewBox="0 0 6100 2800"
 xmlns:xlink="http://www.w3.org/1999/xlink"
 xmlns:xodm="http://www.corel.com/coreldraw/odm/2003">
 <defs>
  <style type="text/css">
   <![CDATA[
    .str0 {stroke:#253A54;stroke-width:53.75;stroke-miterlimit:22.9256}
    .fil0 {fill:#253A54}
    .fil1 {fill:#E75922}
    .fil3 {fill:#253A54;fill-rule:nonzero}
    .fil2 {fill:#E75922;fill-rule:nonzero}
   ]]>
  </style>
 </defs>
 <g id="Ebene_x0020_1">
  <metadata id="CorelCorpID_0Corel-Layer"/>
  <path class="fil0" d="M3069.2 260.67c278.82,0 504.88,300.15 504.88,670.36 0,370.24 -226.06,670.4 -504.88,670.4 -278.82,0 -504.84,-300.16 -504.84,-670.4 0,-370.21 226.02,-670.36 504.84,-670.36zm346.17 -207.81l-111.04 1.98c355.24,127.66 536.66,436.25 544.26,925.84 -49.5,-468.51 -246.29,-776.83 -590.3,-925.01 -693.86,12.41 -2040.38,-5.98 -2015.66,-5.91 1066.85,36.8 1600.31,55.21 1600.31,55.21l-0.04 0.04c-77.72,37.55 -148.63,93.9 -209.65,164.89l-0.1 0c-1586.52,0.4 -2379.76,0.59 -2379.76,0.59l2434.18 51.96 -113.53 25.58c-79.48,118.89 -135.02,266.57 -156.65,429.79l-1932.86 -20.74 2003.59 112.45 -80.12 22.85c-0.44,12.81 -0.65,25.7 -0.65,38.65 0,226.27 64.43,432.52 170.19,588.29l155.96 21.4 -2146.94 25.59 2044.9 23.94 0.11 0.05c60.47,70.83 130.77,127.22 207.79,165.13l-0.02 0 -1322.82 35.71c646.2,6.58 1290.71,18.76 1936.94,18.76 365.53,0 661.85,-393.47 661.85,-878.87 0,-482.26 -292.57,-880.15 -654.84,-878.85 360.14,126.01 544.05,435.49 551.72,928.5 -49.82,-471.44 -248.77,-780.73 -596.78,-927.8l-0.04 -0.02z"/>
  <path class="fil1" d="M3069.2 1541.7c-155.39,0 -292.79,-102.39 -376.04,-259.12 75.08,95.18 176.84,153.65 288.86,153.65 231.1,0 418.45,-248.76 418.45,-555.64 0,-295.74 -174.04,-537.47 -393.51,-554.62 20.34,-3.65 41.14,-5.59 62.24,-5.59 253.99,0 459.88,273.42 459.88,610.65 0,337.26 -205.89,610.67 -459.88,610.67z"/>
  <path class="fil2 str0" d="M190.09 2761l-117.76 0 89.09 -421.44 -127.04 0 21.69 -103.03 372.62 0 -21.69 103.03 -127.83 0 -89.08 421.44zm277.33 0c-26.34,0 -45.32,-4.65 -56.94,-13.95 -11.62,-9.3 -17.43,-23.5 -17.43,-42.61 0,-9.81 1.55,-21.43 4.65,-34.86l72.04 -341.63c6.71,-30.98 18.08,-53.98 34.09,-68.94 16.01,-14.99 40.8,-22.48 74.37,-22.48l261.06 0c26.34,0 45.19,4.65 56.55,13.95 11.37,9.3 17.05,23.76 17.05,43.38 0,5.17 -0.39,10.59 -1.16,16.27 -0.78,5.68 -1.68,11.63 -2.72,17.82l-72.04 341.63c-6.71,30.98 -18.21,53.97 -34.47,68.94 -16.27,14.99 -40.93,22.48 -73.99,22.48l-261.06 0zm315.29 -391.99c0.52,-2.59 0.91,-4.9 1.16,-6.97 0.26,-2.08 0.39,-3.87 0.39,-5.42 0,-11.88 -9.04,-17.83 -27.11,-17.83l-146.42 0c-10.33,0 -17.69,2.08 -22.08,6.21 -4.39,4.12 -7.87,12.12 -10.45,24.01l-55.78 261.07c-1.03,5.15 -1.55,8.52 -1.55,10.06 0,10.86 7.49,16.27 22.47,16.27l146.41 0c12.39,0 21.17,-2.07 26.34,-6.19 5.16,-4.14 8.78,-10.84 10.84,-20.14l55.78 -261.07zm270.37 223.1l-35.64 168.89 -117.75 0 81.34 -383.47 117.75 0 -25.56 119.29 161.91 0c9.81,0 16.65,-2.06 20.53,-6.19 3.87,-4.12 7.1,-12.14 9.68,-24.01l22.47 -103.04c1.03,-5.16 1.55,-8.78 1.55,-10.84 0,-5.68 -1.68,-9.43 -5.04,-11.24 -3.36,-1.81 -8.65,-2.71 -15.88,-2.71l-279.66 0 21.69 -102.26 328.47 0c26.33,0 45.19,4.65 56.55,13.95 11.36,9.3 17.04,23.76 17.04,43.38 0,5.17 -0.39,10.46 -1.16,15.89 -0.78,5.42 -1.68,11.49 -2.71,18.2l-36.41 172.76c-6.72,30.98 -18.08,53.97 -34.09,68.94 -16.01,14.97 -40.8,22.46 -74.37,22.46l-210.71 0zm368.74 -65.07l13.95 -65.07 249.45 0 -13.95 65.07 -249.45 0zm426.86 233.96l-117.76 0 89.09 -421.44 -127.04 0 21.69 -103.03 372.62 0 -21.69 103.03 -127.83 0 -89.08 421.44zm504.31 0l35.63 -171.2c0.52,-2.59 0.91,-4.78 1.17,-6.59 0.25,-1.81 0.38,-3.5 0.38,-5.03 0,-8.27 -7.23,-12.4 -21.69,-12.4l-169.65 0 -41.06 195.22 -117.75 0 81.34 -383.47 117.75 0 -21.69 101.49 161.13 0c11.36,0 18.98,-1.81 22.86,-5.44 3.87,-3.61 7.1,-10.83 9.68,-21.69l18.59 -85.21c0.52,-2.57 0.91,-4.91 1.16,-6.97 0.26,-2.07 0.39,-3.88 0.39,-5.43 0,-6.19 -1.81,-10.32 -5.42,-12.38 -3.62,-2.08 -9.81,-3.11 -18.59,-3.11l-278.11 0 21.69 -102.26 333.11 0c26.85,0 46.22,4.78 58.1,14.33 11.88,9.56 17.82,24.16 17.82,43.77 0,4.65 -0.39,9.56 -1.16,14.73 -0.78,5.16 -1.68,10.59 -2.72,16.27l-24.01 113.88c-5.68,26.85 -16.01,45.82 -30.99,56.93 -14.98,11.11 -31.5,17.7 -49.58,19.76 16.53,1.03 30.47,4.78 41.84,11.22 11.36,6.46 17.04,17.95 17.04,34.49 0,2.57 0,5.28 0,8.13 0,2.84 -0.52,5.8 -1.55,8.9l-37.96 182.06 -117.75 0zm519.03 0l-5.42 -81.34 -189.02 0 -40.29 81.34 -113.88 0 272.69 -524.47 154.16 0 40.29 524.47 -118.53 0zm-25.56 -419.1l-127.05 250.99 143.31 0 -16.26 -250.99zm579.46 419.1l-198.32 -343.97 -72.82 343.97 -109.23 0 110.78 -524.47 110.78 0 171.98 312.97 65.85 -312.97 110 0 -110.78 524.47 -78.24 0zm162.68 0l21.69 -102.26 279.66 0c9.3,0 16.14,-1.81 20.53,-5.43 4.39,-3.62 7.62,-10.33 9.69,-20.14l15.49 -72.81c0.52,-2.07 0.77,-4.91 0.77,-8.53 0,-9.3 -6.71,-13.95 -20.14,-13.95l-206.84 0c-21.17,0 -36.54,-4.51 -46.09,-13.55 -9.55,-9.03 -14.33,-21.82 -14.33,-38.35 0,-6.19 0.77,-13.68 2.32,-22.46l28.67 -135.57c6.71,-30.98 18.07,-53.98 34.08,-68.94 16.01,-14.99 41.06,-22.48 75.15,-22.48l326.14 0 -20.92 99.95 -278.11 0c-8.26,0 -14.2,1.8 -17.82,5.42 -3.61,3.6 -6.45,10.06 -8.52,19.37l-14.72 68.94c-0.52,2.06 -0.9,3.88 -1.16,5.41 -0.26,1.55 -0.39,3.11 -0.39,4.65 0,7.75 5.68,11.62 17.04,11.62l209.94 0c21.69,0 37.32,4.65 46.87,13.95 9.56,9.3 14.33,22.2 14.33,38.74 0,6.71 -0.77,13.94 -2.32,21.68l-30.21 143.32c-6.72,30.98 -18.08,53.97 -34.09,68.94 -16.01,14.99 -40.8,22.48 -74.37,22.48l-332.34 0zm656.93 -168.89l-35.64 168.89 -117.75 0 81.34 -383.47 117.75 0 -25.56 119.29 161.91 0c9.81,0 16.65,-2.06 20.53,-6.19 3.87,-4.12 7.1,-12.14 9.68,-24.01l22.47 -103.04c1.03,-5.16 1.55,-8.78 1.55,-10.84 0,-5.68 -1.68,-9.43 -5.04,-11.24 -3.36,-1.81 -8.65,-2.71 -15.88,-2.71l-279.66 0 21.69 -102.26 328.47 0c26.33,0 45.19,4.65 56.55,13.95 11.36,9.3 17.04,23.76 17.04,43.38 0,5.17 -0.39,10.46 -1.16,15.89 -0.78,5.42 -1.68,11.49 -2.71,18.2l-36.41 172.76c-6.72,30.98 -18.08,53.97 -34.09,68.94 -16.01,14.97 -40.8,22.46 -74.37,22.46l-210.71 0zm423.75 168.89c-26.34,0 -45.32,-4.65 -56.94,-13.95 -11.62,-9.3 -17.43,-23.5 -17.43,-42.61 0,-9.81 1.55,-21.43 4.65,-34.86l72.04 -341.63c6.71,-30.98 18.08,-53.98 34.09,-68.94 16.01,-14.99 40.8,-22.48 74.37,-22.48l261.06 0c26.34,0 45.19,4.65 56.55,13.95 11.37,9.3 17.05,23.76 17.05,43.38 0,5.17 -0.39,10.59 -1.16,16.27 -0.78,5.68 -1.68,11.63 -2.72,17.82l-72.04 341.63c-6.71,30.98 -18.21,53.97 -34.47,68.94 -16.27,14.99 -40.93,22.48 -73.99,22.48l-261.06 0zm315.29 -391.99c0.52,-2.59 0.91,-4.9 1.16,-6.97 0.26,-2.08 0.39,-3.87 0.39,-5.42 0,-11.88 -9.04,-17.83 -27.11,-17.83l-146.42 0c-10.33,0 -17.69,2.08 -22.08,6.21 -4.39,4.12 -7.87,12.12 -10.45,24.01l-55.78 261.07c-1.03,5.15 -1.55,8.52 -1.55,10.06 0,10.86 7.49,16.27 22.47,16.27l146.41 0c12.39,0 21.17,-2.07 26.34,-6.19 5.16,-4.14 8.78,-10.84 10.84,-20.14l55.78 -261.07zm429.18 391.99l35.63 -171.2c0.52,-2.59 0.91,-4.78 1.17,-6.59 0.25,-1.81 0.38,-3.5 0.38,-5.03 0,-8.27 -7.23,-12.4 -21.69,-12.4l-169.65 0 -41.06 195.22 -117.75 0 81.34 -383.47 117.75 0 -21.69 101.49 161.13 0c11.36,0 18.98,-1.81 22.86,-5.44 3.87,-3.61 7.1,-10.83 9.68,-21.69l18.59 -85.21c0.52,-2.57 0.91,-4.91 1.16,-6.97 0.26,-2.07 0.39,-3.88 0.39,-5.43 0,-6.19 -1.81,-10.32 -5.42,-12.38 -3.62,-2.08 -9.81,-3.11 -18.59,-3.11l-278.11 0 21.69 -102.26 333.11 0c26.85,0 46.22,4.78 58.1,14.33 11.88,9.56 17.82,24.16 17.82,43.77 0,4.65 -0.39,9.56 -1.16,14.73 -0.78,5.16 -1.68,10.59 -2.72,16.27l-24.01 113.88c-5.68,26.85 -16.01,45.82 -30.99,56.93 -14.98,11.11 -31.5,17.7 -49.58,19.76 16.53,1.03 30.47,4.78 41.84,11.22 11.36,6.46 17.04,17.95 17.04,34.49 0,2.57 0,5.28 0,8.13 0,2.84 -0.52,5.8 -1.55,8.9l-37.96 182.06 -117.75 0zm407.48 0l-117.76 0 89.09 -421.44 -127.04 0 21.69 -103.03 372.62 0 -21.69 103.03 -127.83 0 -89.08 421.44z"/>
  <polygon class="fil3" points="2822.32,1107.01 2719.03,1107.01 2797.18,737.35 2685.74,737.35 2704.76,646.96 3031.62,646.96 3012.59,737.35 2900.47,737.35 "/>
  <polygon class="fil3" points="3125.76,1271.94 3022.47,1271.94 3100.62,902.28 2989.18,902.28 3008.2,811.89 3335.06,811.89 3316.03,902.28 3203.91,902.28 "/>
 </g>
</svg>
