<svg xmlns="http://www.w3.org/2000/svg" xmlns:xlink="http://www.w3.org/1999/xlink" version="1.1" x="0px" y="0px" viewBox="0 0 66 82.5" style="enable-background:new 0 0 66 66; fill: #e75922;" xml:space="preserve"><g><g><path d="M66,35.7c0-1-0.3-1.9-0.8-2.7l-6.7-11.1c-1-1.6-2.7-2.5-4.5-2.5h-9.9v-6.9c0-0.6-0.4-1-1-1c-0.6,0-1,0.4-1,1v26.1H2V12.5    c0-0.6-0.4-1-1-1c-0.6,0-1,0.4-1,1c0,25.4,0,41.7,0,44.1c0,0.6,0.4,1,1,1h10.5c-0.4,4.5,3.1,8.4,7.6,8.4c4.5,0,8.1-3.9,7.6-8.4h17    C43.4,62.1,47,66,51.5,66c4.5,0,8.1-3.9,7.6-8.4H65c0.6,0,1-0.4,1-1C66,37,66,55,66,35.7z M54,21.4c1.1,0,2.2,0.6,2.8,1.6L63.5,34    c0.3,0.5,0.5,1.1,0.5,1.7v9.2H44.1V21.4H54z M42.1,40.6v4.3H2v-4.3H42.1z M19.2,64c-3.1,0-5.7-2.5-5.7-5.7c0-3.1,2.5-5.7,5.7-5.7    c3.1,0,5.7,2.5,5.7,5.7C24.8,61.5,22.3,64,19.2,64z M51.5,64c-3.1,0-5.7-2.5-5.7-5.7c0-3.1,2.5-5.7,5.7-5.7c3.1,0,5.7,2.5,5.7,5.7    C57.2,61.5,54.6,64,51.5,64z M64,55.6h-5.3c-1.1-2.9-3.9-4.9-7.2-4.9c-3.3,0-6.1,2-7.2,4.9h-18c-1.1-2.9-3.9-4.9-7.2-4.9    c-3.3,0-6.1,2-7.2,4.9H2v-8.7h62V55.6z"/></g><g><path d="M48.8,35.8h10c0,0,0,0,0,0c0.6,0,1-0.4,1-1c0-0.3-0.1-0.5-0.3-0.7l-4.9-7.9c-0.5-0.8-1.4-1.3-2.3-1.3h-3.6    c-0.6,0-1,0.4-1,1v8.8C47.8,35.3,48.2,35.8,48.8,35.8z M49.8,26.9h2.6c0.2,0,0.5,0.1,0.6,0.3l4,6.5h-7.2V26.9z"/></g><g><path d="M4.2,11.2v23.6c0,0.6,0.4,1,1,1h33.7c0.6,0,1-0.4,1-1V1c0-0.6-0.4-1-1-1H5.2c-0.6,0-1,0.4-1,1v10.1    C4.2,11.1,4.2,11.1,4.2,11.2C4.2,11.2,4.2,11.2,4.2,11.2z M6.2,33.8V12.1h31.7v21.6H6.2z M30.9,4.8c0.6,0,1.1,0.5,1.1,1.1    S31.5,7,30.9,7c-0.6,0-1.1-0.5-1.1-1.1S30.3,4.8,30.9,4.8z M13.3,4.8c0.6,0,1.1,0.5,1.1,1.1S13.9,7,13.3,7c-0.6,0-1.1-0.5-1.1-1.1    S12.7,4.8,13.3,4.8z M12.3,2v1c-1.2,0.4-2.1,1.6-2.1,2.9c0,1.7,1.4,3.1,3.1,3.1s3.1-1.4,3.1-3.1c0-1.4-0.9-2.5-2.1-2.9V2h15.6v1    c-1.2,0.4-2.1,1.6-2.1,2.9c0,1.7,1.4,3.1,3.1,3.1C32.6,9,34,7.6,34,5.9c0-1.4-0.9-2.5-2.1-2.9V2h6.1v8.1H6.2V2H12.3z"/></g><g><path d="M14.5,13.8H9.4c-0.6,0-1,0.4-1,1v5.4c0,0.6,0.4,1,1,1h5.1c0.6,0,1-0.4,1-1v-5.4C15.5,14.3,15,13.8,14.5,13.8z M13.5,19.2    h-3.1v-3.4h3.1V19.2z"/></g><g><path d="M24,13.8h-5.1c-0.6,0-1,0.4-1,1v5.4c0,0.6,0.4,1,1,1H24c0.6,0,1-0.4,1-1v-5.4C25,14.3,24.5,13.8,24,13.8z M23,19.2h-3.1    v-3.4H23V19.2z"/></g><g><path d="M14.5,23.6H9.4c-0.6,0-1,0.4-1,1V30c0,0.6,0.4,1,1,1h5.1c0.6,0,1-0.4,1-1v-5.4C15.5,24.1,15,23.6,14.5,23.6z M13.5,29    h-3.1v-3.4h3.1V29z"/></g><g><path d="M24,23.6h-5.1c-0.6,0-1,0.4-1,1V30c0,0.6,0.4,1,1,1H24c0.6,0,1-0.4,1-1v-5.4C25,24.1,24.5,23.6,24,23.6z M23,29h-3.1v-3.4    H23V29z"/></g><g><path d="M28.4,21.2h5.1c0.6,0,1-0.4,1-1v-5.4c0-0.6-0.4-1-1-1h-5.1c-0.6,0-1,0.4-1,1v5.4C27.4,20.8,27.8,21.2,28.4,21.2z     M29.4,15.8h3.1v3.4h-3.1V15.8z"/></g><g><path d="M35.2,23.2l-5.1,5.4l-1.7-2.8c-0.3-0.5-0.9-0.6-1.4-0.3c-0.5,0.3-0.6,0.9-0.3,1.4l2.4,4c0.2,0.3,0.4,0.4,0.8,0.5    c0.3,0,0.6-0.1,0.8-0.3l6-6.4c0.4-0.4,0.4-1,0-1.4C36.2,22.7,35.6,22.8,35.2,23.2z"/></g></g></svg>