<svg xmlns="http://www.w3.org/2000/svg" xmlns:xlink="http://www.w3.org/1999/xlink" version="1.1" x="0px" y="0px" viewBox="0 0 90 112.5" style="enable-background:new 0 0 90 90;fill: #ffffff;" xml:space="preserve"><path d="M38.161,18.925c0.025,0.048,0.047,0.089,0.072,0.136C38.249,19.108,38.136,18.884,38.161,18.925z M34.765,9.067  c-1.141-0.536-2.713-0.688-4,0.057l-2.791,1.609c-0.057,0.037-0.119,0.074-0.178,0.115c-6.719,4.948-9.807,11.823-10.113,18.916  c-0.303,7.09,2.057,14.407,5.941,20.803l7.184,12.438c0.004,0,0.01,0.005,0.01,0.005l0.016,0.031  c3.588,6.552,8.74,12.235,15.021,15.511c6.291,3.286,13.797,4.041,21.438,0.693c0.063-0.032,0.125-0.058,0.182-0.095l2.791-1.609  c1.287-0.744,1.938-2.186,2.047-3.443c0.105-1.254-0.15-2.462-0.531-3.667c-0.76-2.375-2.066-4.681-3.15-6.265  c-2.063-3.557-4.047-6.036-6.344-7.411c-2.313-1.391-5.088-1.36-7.354-0.053l-3.475,2.005c-1.031,0.595-2.219,0.521-3.479-0.014  c-1.256-0.538-2.422-1.609-2.855-2.36l-8.563-14.833c-0.438-0.75-0.785-2.297-0.619-3.651c0.162-1.36,0.703-2.427,1.734-3.021  l3.469-2.006c2.26-1.307,3.678-3.697,3.631-6.396c-0.043-2.681-1.199-5.635-3.256-9.213c-0.828-1.729-2.162-4.005-3.838-5.844  C36.833,10.437,35.905,9.598,34.765,9.067z"/></svg>